<svg height="1694" width="720" xmlns="http://www.w3.org/2000/svg">
<rect height="1694" fill="#555" width="720"></rect>
<text fill="#7f7" font-family="Courier New" font-size="12" xml:space="preserve">
<tspan x="10" y="26">20 megabytes installed</tspan>
<tspan x="10" y="42"></tspan>
<tspan x="10" y="58">node_modules</tspan>
<tspan x="10" y="74">└─┬ passport-azure-ad@3.0.6 </tspan>
<tspan x="10" y="90">  ├── async@1.5.2 </tspan>
<tspan x="10" y="106">  ├── base64url@2.0.0 </tspan>
<tspan x="10" y="122">  ├─┬ bunyan@1.8.10 </tspan>
<tspan x="10" y="138">  │ ├─┬ dtrace-provider@0.8.1 </tspan>
<tspan x="10" y="154">  │ │ └── nan@2.6.2 </tspan>
<tspan x="10" y="170">  │ ├── moment@2.18.1 </tspan>
<tspan x="10" y="186">  │ ├─┬ mv@2.1.1 </tspan>
<tspan x="10" y="202">  │ │ ├─┬ mkdirp@0.5.1 </tspan>
<tspan x="10" y="218">  │ │ │ └── minimist@0.0.8 </tspan>
<tspan x="10" y="234">  │ │ ├── ncp@2.0.0 </tspan>
<tspan x="10" y="250">  │ │ └─┬ rimraf@2.4.5 </tspan>
<tspan x="10" y="266">  │ │   └─┬ glob@6.0.4 </tspan>
<tspan x="10" y="282">  │ │     ├─┬ inflight@1.0.6 </tspan>
<tspan x="10" y="298">  │ │     │ └── wrappy@1.0.2 </tspan>
<tspan x="10" y="314">  │ │     ├─┬ minimatch@3.0.3 </tspan>
<tspan x="10" y="330">  │ │     │ └─┬ brace-expansion@1.1.7 </tspan>
<tspan x="10" y="346">  │ │     │   ├── balanced-match@0.4.2 </tspan>
<tspan x="10" y="362">  │ │     │   └── concat-map@0.0.1 </tspan>
<tspan x="10" y="378">  │ │     ├── once@1.4.0 </tspan>
<tspan x="10" y="394">  │ │     └── path-is-absolute@1.0.1 </tspan>
<tspan x="10" y="410">  │ └── safe-json-stringify@1.0.4 </tspan>
<tspan x="10" y="426">  ├─┬ cache-manager@2.4.0 </tspan>
<tspan x="10" y="442">  │ └─┬ lru-cache@4.0.0 </tspan>
<tspan x="10" y="458">  │   ├── pseudomap@1.0.2 </tspan>
<tspan x="10" y="474">  │   └── yallist@2.1.2 </tspan>
<tspan x="10" y="490">  ├─┬ jwk-to-pem@1.2.6 </tspan>
<tspan x="10" y="506">  │ ├─┬ asn1.js@4.9.1 </tspan>
<tspan x="10" y="522">  │ │ ├── bn.js@4.11.6 </tspan>
<tspan x="10" y="538">  │ │ ├── inherits@2.0.3 </tspan>
<tspan x="10" y="554">  │ │ └── minimalistic-assert@1.0.0 </tspan>
<tspan x="10" y="570">  │ ├─┬ elliptic@6.4.0 </tspan>
<tspan x="10" y="586">  │ │ ├── brorand@1.1.0 </tspan>
<tspan x="10" y="602">  │ │ ├── hash.js@1.0.3 </tspan>
<tspan x="10" y="618">  │ │ ├── hmac-drbg@1.0.1 </tspan>
<tspan x="10" y="634">  │ │ └── minimalistic-crypto-utils@1.0.1 </tspan>
<tspan x="10" y="650">  │ └── safe-buffer@5.0.1 </tspan>
<tspan x="10" y="666">  ├─┬ jws@3.1.4 </tspan>
<tspan x="10" y="682">  │ └─┬ jwa@1.1.5 </tspan>
<tspan x="10" y="698">  │   ├── buffer-equal-constant-time@1.0.1 </tspan>
<tspan x="10" y="714">  │   └── ecdsa-sig-formatter@1.0.9 </tspan>
<tspan x="10" y="730">  ├── lodash@4.17.4 </tspan>
<tspan x="10" y="746">  ├── oauth@0.9.14 </tspan>
<tspan x="10" y="762">  ├─┬ passport@0.3.2 </tspan>
<tspan x="10" y="778">  │ ├── passport-strategy@1.0.0 </tspan>
<tspan x="10" y="794">  │ └── pause@0.0.1 </tspan>
<tspan x="10" y="810">  ├── pkginfo@0.4.0 </tspan>
<tspan x="10" y="826">  ├─┬ request@2.81.0 </tspan>
<tspan x="10" y="842">  │ ├── aws-sign2@0.6.0 </tspan>
<tspan x="10" y="858">  │ ├── aws4@1.6.0 </tspan>
<tspan x="10" y="874">  │ ├── caseless@0.12.0 </tspan>
<tspan x="10" y="890">  │ ├─┬ combined-stream@1.0.5 </tspan>
<tspan x="10" y="906">  │ │ └── delayed-stream@1.0.0 </tspan>
<tspan x="10" y="922">  │ ├── extend@3.0.0 </tspan>
<tspan x="10" y="938">  │ ├── forever-agent@0.6.1 </tspan>
<tspan x="10" y="954">  │ ├─┬ form-data@2.1.4 </tspan>
<tspan x="10" y="970">  │ │ └── asynckit@0.4.0 </tspan>
<tspan x="10" y="986">  │ ├─┬ har-validator@4.2.1 </tspan>
<tspan x="10" y="1002">  │ │ ├─┬ ajv@4.11.7 </tspan>
<tspan x="10" y="1018">  │ │ │ ├── co@4.6.0 </tspan>
<tspan x="10" y="1034">  │ │ │ └─┬ json-stable-stringify@1.0.1 </tspan>
<tspan x="10" y="1050">  │ │ │   └── jsonify@0.0.0 </tspan>
<tspan x="10" y="1066">  │ │ └── har-schema@1.0.5 </tspan>
<tspan x="10" y="1082">  │ ├─┬ hawk@3.1.3 </tspan>
<tspan x="10" y="1098">  │ │ ├── boom@2.10.1 </tspan>
<tspan x="10" y="1114">  │ │ ├── cryptiles@2.0.5 </tspan>
<tspan x="10" y="1130">  │ │ ├── hoek@2.16.3 </tspan>
<tspan x="10" y="1146">  │ │ └── sntp@1.0.9 </tspan>
<tspan x="10" y="1162">  │ ├─┬ http-signature@1.1.1 </tspan>
<tspan x="10" y="1178">  │ │ ├── assert-plus@0.2.0 </tspan>
<tspan x="10" y="1194">  │ │ ├─┬ jsprim@1.4.0 </tspan>
<tspan x="10" y="1210">  │ │ │ ├── assert-plus@1.0.0 </tspan>
<tspan x="10" y="1226">  │ │ │ ├── extsprintf@1.0.2 </tspan>
<tspan x="10" y="1242">  │ │ │ ├── json-schema@0.2.3 </tspan>
<tspan x="10" y="1258">  │ │ │ └── verror@1.3.6 </tspan>
<tspan x="10" y="1274">  │ │ └─┬ sshpk@1.13.0 </tspan>
<tspan x="10" y="1290">  │ │   ├── asn1@0.2.3 </tspan>
<tspan x="10" y="1306">  │ │   ├── assert-plus@1.0.0 </tspan>
<tspan x="10" y="1322">  │ │   ├── bcrypt-pbkdf@1.0.1 </tspan>
<tspan x="10" y="1338">  │ │   ├─┬ dashdash@1.14.1 </tspan>
<tspan x="10" y="1354">  │ │   │ └── assert-plus@1.0.0 </tspan>
<tspan x="10" y="1370">  │ │   ├── ecc-jsbn@0.1.1 </tspan>
<tspan x="10" y="1386">  │ │   ├─┬ getpass@0.1.6 </tspan>
<tspan x="10" y="1402">  │ │   │ └── assert-plus@1.0.0 </tspan>
<tspan x="10" y="1418">  │ │   ├── jodid25519@1.0.2 </tspan>
<tspan x="10" y="1434">  │ │   ├── jsbn@0.1.1 </tspan>
<tspan x="10" y="1450">  │ │   └── tweetnacl@0.14.5 </tspan>
<tspan x="10" y="1466">  │ ├── is-typedarray@1.0.0 </tspan>
<tspan x="10" y="1482">  │ ├── isstream@0.1.2 </tspan>
<tspan x="10" y="1498">  │ ├── json-stringify-safe@5.0.1 </tspan>
<tspan x="10" y="1514">  │ ├─┬ mime-types@2.1.15 </tspan>
<tspan x="10" y="1530">  │ │ └── mime-db@1.27.0 </tspan>
<tspan x="10" y="1546">  │ ├── oauth-sign@0.8.2 </tspan>
<tspan x="10" y="1562">  │ ├── performance-now@0.2.0 </tspan>
<tspan x="10" y="1578">  │ ├── qs@6.4.0 </tspan>
<tspan x="10" y="1594">  │ ├── stringstream@0.0.5 </tspan>
<tspan x="10" y="1610">  │ ├─┬ tough-cookie@2.3.2 </tspan>
<tspan x="10" y="1626">  │ │ └── punycode@1.4.1 </tspan>
<tspan x="10" y="1642">  │ ├── tunnel-agent@0.6.0 </tspan>
<tspan x="10" y="1658">  │ └── uuid@3.0.1 </tspan>
<tspan x="10" y="1674">  └── valid-url@1.0.9</tspan>
</text>
</svg>
